<?xml version="1.0" encoding="UTF-8" standalone="no"?>
<!-- Created with Inkscape (http://www.inkscape.org/) -->

<svg
   xmlns:dc="http://purl.org/dc/elements/1.1/"
   xmlns:cc="http://creativecommons.org/ns#"
   xmlns:rdf="http://www.w3.org/1999/02/22-rdf-syntax-ns#"
   xmlns:svg="http://www.w3.org/2000/svg"
   xmlns="http://www.w3.org/2000/svg"
   xmlns:sodipodi="http://sodipodi.sourceforge.net/DTD/sodipodi-0.dtd"
   xmlns:inkscape="http://www.inkscape.org/namespaces/inkscape"
   width="500"
   height="300"
   viewBox="0 0 499.99998 300"
   id="svg11270"
   version="1.1"
   inkscape:version="0.91 r13725"
   sodipodi:docname="03_admin_add_secret_2.svg">
  <defs
     id="defs11272">
    <marker
       inkscape:stockid="TriangleOutL"
       orient="auto"
       refY="0.0"
       refX="0.0"
       id="marker30614"
       style="overflow:visible"
       inkscape:isstock="true">
      <path
         id="path30616"
         d="M 5.77,0.0 L -2.88,5.0 L -2.88,-5.0 L 5.77,0.0 z "
         style="fill-rule:evenodd;stroke:#000000;stroke-width:1pt;stroke-opacity:1;fill:#000000;fill-opacity:1"
         transform="scale(0.8)" />
    </marker>
    <marker
       inkscape:stockid="TriangleInL"
       orient="auto"
       refY="0.0"
       refX="0.0"
       id="TriangleInL"
       style="overflow:visible"
       inkscape:isstock="true">
      <path
         id="path6154"
         d="M 5.77,0.0 L -2.88,5.0 L -2.88,-5.0 L 5.77,0.0 z "
         style="fill-rule:evenodd;stroke:#000000;stroke-width:1pt;stroke-opacity:1;fill:#000000;fill-opacity:1"
         transform="scale(-0.8)" />
    </marker>
    <marker
       inkscape:stockid="TriangleOutL"
       orient="auto"
       refY="0.0"
       refX="0.0"
       id="marker16070"
       style="overflow:visible"
       inkscape:isstock="true">
      <path
         id="path16072"
         d="M 5.77,0.0 L -2.88,5.0 L -2.88,-5.0 L 5.77,0.0 z "
         style="fill-rule:evenodd;stroke:#000000;stroke-width:1pt;stroke-opacity:1;fill:#000000;fill-opacity:1"
         transform="scale(0.8)" />
    </marker>
    <marker
       inkscape:stockid="TriangleOutL"
       orient="auto"
       refY="0.0"
       refX="0.0"
       id="TriangleOutL"
       style="overflow:visible"
       inkscape:isstock="true">
      <path
         id="path6163"
         d="M 5.77,0.0 L -2.88,5.0 L -2.88,-5.0 L 5.77,0.0 z "
         style="fill-rule:evenodd;stroke:#000000;stroke-width:1.0pt"
         transform="scale(0.8)" />
    </marker>
  </defs>
  <sodipodi:namedview
     id="base"
     pagecolor="#ffffff"
     bordercolor="#666666"
     borderopacity="1.0"
     inkscape:pageopacity="0.0"
     inkscape:pageshadow="2"
     inkscape:zoom="1.4"
     inkscape:cx="93.292941"
     inkscape:cy="181.33535"
     inkscape:document-units="px"
     inkscape:current-layer="layer1"
     showgrid="false"
     units="px"
     inkscape:window-width="1440"
     inkscape:window-height="817"
     inkscape:window-x="0"
     inkscape:window-y="1"
     inkscape:window-maximized="1" />
  <metadata
     id="metadata11275">
    <rdf:RDF>
      <cc:Work
         rdf:about="">
        <dc:format>image/svg+xml</dc:format>
        <dc:type
           rdf:resource="http://purl.org/dc/dcmitype/StillImage" />
        <dc:title />
      </cc:Work>
    </rdf:RDF>
  </metadata>
  <g
     inkscape:label="Layer 1"
     inkscape:groupmode="layer"
     id="layer1"
     transform="translate(0,-752.36216)">
    <rect
       style="fill:none;fill-opacity:1;stroke:#000000;stroke-width:2;stroke-opacity:1;stroke-miterlimit:4;stroke-dasharray:none"
       id="rect11278"
       width="187.07925"
       height="104.87141"
       x="156.46036"
       y="842.87781" />
    <text
       xml:space="preserve"
       style="font-style:normal;font-weight:normal;font-size:40px;line-height:125%;font-family:sans-serif;letter-spacing:0px;word-spacing:0px;fill:#000000;fill-opacity:1;stroke:none;stroke-width:1px;stroke-linecap:butt;stroke-linejoin:miter;stroke-opacity:1"
       x="240.85733"
       y="959.65863"
       id="text11280"
       sodipodi:linespacing="125%"><tspan
         sodipodi:role="line"
         id="tspan11282"
         x="240.85733"
         y="959.65863"
         style="font-size:12.5px">Keywhiz (server)</tspan></text>
    <text
       sodipodi:linespacing="125%"
       id="text13608"
       y="886.37439"
       x="362.90588"
       style="font-style:normal;font-weight:normal;font-size:40px;line-height:125%;font-family:sans-serif;letter-spacing:0px;word-spacing:0px;fill:#000000;fill-opacity:1;stroke:none;stroke-width:1px;stroke-linecap:butt;stroke-linejoin:miter;stroke-opacity:1"
       xml:space="preserve"><tspan
         style="font-size:7.5px"
         y="886.37439"
         x="362.90588"
         id="tspan13610"
         sodipodi:role="line">Encryption</tspan></text>
    <path
       sodipodi:nodetypes="cc"
       inkscape:connector-curvature="0"
       id="path14846"
       d="m 82.327409,918.76948 c 19.192921,7.57614 53.538091,-4.2932 66.165001,-17.42515"
       style="fill:none;fill-rule:evenodd;stroke:#000000;stroke-width:1px;stroke-linecap:butt;stroke-linejoin:miter;stroke-opacity:1;marker-end:" />
    <g
       id="g15998"
       transform="translate(-28.284271,-0.50507627)">
      <ellipse
         ry="9.7461014"
         rx="10.900246"
         cy="896.64252"
         cx="94.244247"
         id="path15544"
         style="fill:none;fill-opacity:1;stroke:#000000;stroke-width:0.5077973;stroke-miterlimit:4;stroke-dasharray:none;stroke-opacity:1" />
      <path
         inkscape:connector-curvature="0"
         id="path15546"
         d="m 94.196709,906.39512 -0.252538,13.63706 -4.798225,11.11168"
         style="fill:none;fill-rule:evenodd;stroke:#000000;stroke-width:1px;stroke-linecap:butt;stroke-linejoin:miter;stroke-opacity:1" />
      <path
         inkscape:connector-curvature="0"
         id="path15548"
         d="m 93.439095,919.77964 6.060915,11.36422"
         style="fill:none;fill-rule:evenodd;stroke:#000000;stroke-width:1px;stroke-linecap:butt;stroke-linejoin:miter;stroke-opacity:1" />
      <path
         inkscape:connector-curvature="0"
         id="path15550"
         d="m 103.28808,910.18319 -9.343909,3.53553 -8.838835,-2.77792"
         style="fill:none;fill-rule:evenodd;stroke:#000000;stroke-width:1px;stroke-linecap:butt;stroke-linejoin:miter;stroke-opacity:1" />
    </g>
    <text
       sodipodi:linespacing="125%"
       id="text16058"
       y="860.9162"
       x="406.52237"
       style="font-style:normal;font-weight:normal;font-size:40px;line-height:125%;font-family:sans-serif;letter-spacing:0px;word-spacing:0px;fill:#000000;fill-opacity:1;stroke:none;stroke-width:1px;stroke-linecap:butt;stroke-linejoin:miter;stroke-opacity:1"
       xml:space="preserve"><tspan
         style="font-size:12.5px"
         y="860.9162"
         x="406.52237"
         id="tspan16060"
         sodipodi:role="line">HSM</tspan></text>
    <path
       style="fill:none;fill-rule:evenodd;stroke:#000000;stroke-width:1px;stroke-linecap:butt;stroke-linejoin:miter;stroke-opacity:1;marker-start:url(#TriangleInL);marker-end:url(#marker30614)"
       d="m 357.59398,875.33293 c 13.63708,1.01015 16.66753,-1.76783 26.76905,-11.86932"
       id="path16068"
       inkscape:connector-curvature="0"
       sodipodi:nodetypes="cc" />
    <g
       transform="matrix(0.44856543,0,0,0.44856543,192.15198,511.61029)"
       id="g16554">
      <path
         id="path16556"
         d="m 405.68114,765.2172 0,24.34855 c 0,0.85475 -0.78827,1.54287 -1.76742,1.54287 l -25.3963,0 c -0.97916,0 -1.76743,-0.68812 -1.76743,-1.54287 l 0,-34.476 c 0,-0.85475 0.78827,-1.54287 1.76743,-1.54287 l 0,0 15.49383,0"
         style="fill:#a8e6cf;fill-opacity:1;fill-rule:evenodd;stroke:#000000;stroke-width:1.29458833;stroke-linecap:butt;stroke-linejoin:miter;stroke-miterlimit:4;stroke-dasharray:none;stroke-opacity:1"
         inkscape:connector-curvature="0" />
      <path
         inkscape:connector-curvature="0"
         id="path16558"
         d="m 405.68114,765.2172 -9.90246,0 c -0.97916,0 -1.76743,-0.68812 -1.76743,-1.54287 l 0,-10.12745"
         style="fill:#a8e6cf;fill-opacity:1;fill-rule:evenodd;stroke:#000000;stroke-width:1.27590215;stroke-linecap:butt;stroke-linejoin:miter;stroke-miterlimit:4;stroke-dasharray:none;stroke-opacity:1" />
      <path
         sodipodi:nodetypes="cc"
         inkscape:connector-curvature="0"
         id="path16560"
         d="m 393.5482,753.35571 12.3124,12.31518"
         style="fill:none;fill-opacity:0;fill-rule:evenodd;stroke:#000000;stroke-width:1.29458833;stroke-linecap:butt;stroke-linejoin:miter;stroke-miterlimit:4;stroke-dasharray:none;stroke-opacity:1" />
    </g>
    <path
       style="fill:#000000;fill-opacity:1;fill-rule:evenodd;stroke:none;stroke-width:1px;stroke-linecap:butt;stroke-linejoin:miter;stroke-opacity:1"
       d="m 367.6395,855.97328 c -1.11163,-0.0122 -1.79245,0.93388 -1.78106,2.24183 -0.96284,0.21561 -0.5149,2.72395 -0.4914,3.3935 0.0235,0.66955 1.64289,1.035 2.41069,1.05952 0.7678,0.0245 2.05835,-0.58278 2.05752,-1.36662 -9e-4,-0.78383 0.30244,-2.70332 -0.5066,-3.07096 -0.0229,-1.01524 -0.57752,-2.2451 -1.68915,-2.25727 z m -0.0613,0.76787 c 1.1209,0 0.99801,1.45876 0.99801,1.45876 l -1.99601,0 c 0,0 -0.1229,-1.45876 0.998,-1.45876 z m 0.0922,2.80994 c 0.86832,0.0461 0.56899,1.0268 0.24558,1.05952 l 0.0154,0.59875 -0.72178,0 0,-0.61419 c -0.31279,-0.20732 -0.40756,-1.09014 0.46076,-1.04408 z"
       id="path16573"
       inkscape:connector-curvature="0" />
    <path
       inkscape:connector-curvature="0"
       id="path16589"
       d="m 396.76861,844.1764 c -3.45954,-0.038 -5.57834,2.90635 -5.54289,6.97686 -2.99648,0.67101 -1.60243,8.47728 -1.5293,10.561 0.0731,2.08373 5.11288,3.22106 7.50238,3.29737 2.38949,0.0762 6.40584,-1.81369 6.40326,-4.2531 -0.003,-2.43938 0.94123,-8.41308 -1.5766,-9.55722 -0.0713,-3.15956 -1.79732,-6.98704 -5.25685,-7.02491 z m -0.19078,2.38971 c 3.48839,0 3.10594,4.53985 3.10594,4.53985 l -6.21184,0 c 0,0 -0.38248,-4.53985 3.1059,-4.53985 z m 0.28694,8.74489 c 2.70232,0.14347 1.77077,3.19553 0.76428,3.29736 l 0.0479,1.86339 -2.24627,0 0,-1.91144 c -0.97344,-0.64521 -1.26838,-3.39265 1.43395,-3.24931 z"
       style="fill:#000000;fill-opacity:1;fill-rule:evenodd;stroke:none;stroke-width:1px;stroke-linecap:butt;stroke-linejoin:miter;stroke-opacity:1" />
  </g>
</svg>
