<?xml version="1.0" encoding="UTF-8" standalone="no"?>
<!-- Created with Inkscape (http://www.inkscape.org/) -->

<svg
   xmlns:dc="http://purl.org/dc/elements/1.1/"
   xmlns:cc="http://creativecommons.org/ns#"
   xmlns:rdf="http://www.w3.org/1999/02/22-rdf-syntax-ns#"
   xmlns:svg="http://www.w3.org/2000/svg"
   xmlns="http://www.w3.org/2000/svg"
   xmlns:sodipodi="http://sodipodi.sourceforge.net/DTD/sodipodi-0.dtd"
   xmlns:inkscape="http://www.inkscape.org/namespaces/inkscape"
   width="500"
   height="300"
   viewBox="0 0 499.99998 300"
   id="svg11270"
   version="1.1"
   inkscape:version="0.91 r13725"
   sodipodi:docname="05_get_secret_4.svg">
  <defs
     id="defs11272">
    <marker
       inkscape:stockid="Arrow2Lstart"
       orient="auto"
       refY="0.0"
       refX="0.0"
       id="marker19849"
       style="overflow:visible"
       inkscape:isstock="true">
      <path
         id="path19851"
         style="fill-rule:evenodd;stroke-width:0.625;stroke-linejoin:round;stroke:#000000;stroke-opacity:1;fill:#000000;fill-opacity:1"
         d="M 8.7185878,4.0337352 L -2.2072895,0.016013256 L 8.7185884,-4.0017078 C 6.9730900,-1.6296469 6.9831476,1.6157441 8.7185878,4.0337352 z "
         transform="scale(1.1) translate(1,0)" />
    </marker>
    <marker
       inkscape:stockid="Arrow2Lstart"
       orient="auto"
       refY="0.0"
       refX="0.0"
       id="Arrow2Lstart"
       style="overflow:visible"
       inkscape:isstock="true">
      <path
         id="path6039"
         style="fill-rule:evenodd;stroke-width:0.625;stroke-linejoin:round;stroke:#000000;stroke-opacity:1;fill:#000000;fill-opacity:1"
         d="M 8.7185878,4.0337352 L -2.2072895,0.016013256 L 8.7185884,-4.0017078 C 6.9730900,-1.6296469 6.9831476,1.6157441 8.7185878,4.0337352 z "
         transform="scale(1.1) translate(1,0)" />
    </marker>
    <marker
       inkscape:isstock="true"
       style="overflow:visible"
       id="marker19699"
       refX="0.0"
       refY="0.0"
       orient="auto"
       inkscape:stockid="TriangleOutL">
      <path
         transform="scale(0.8)"
         style="fill-rule:evenodd;stroke:#000000;stroke-width:1pt;stroke-opacity:1;fill:#000000;fill-opacity:1"
         d="M 5.77,0.0 L -2.88,5.0 L -2.88,-5.0 L 5.77,0.0 z "
         id="path19701" />
    </marker>
    <marker
       inkscape:stockid="TriangleOutL"
       orient="auto"
       refY="0.0"
       refX="0.0"
       id="marker19635"
       style="overflow:visible"
       inkscape:isstock="true">
      <path
         id="path19637"
         d="M 5.77,0.0 L -2.88,5.0 L -2.88,-5.0 L 5.77,0.0 z "
         style="fill-rule:evenodd;stroke:#000000;stroke-width:1pt;stroke-opacity:1;fill:#000000;fill-opacity:1"
         transform="scale(0.8)" />
    </marker>
    <marker
       inkscape:stockid="TriangleOutL"
       orient="auto"
       refY="0.0"
       refX="0.0"
       id="marker16070"
       style="overflow:visible"
       inkscape:isstock="true">
      <path
         id="path16072"
         d="M 5.77,0.0 L -2.88,5.0 L -2.88,-5.0 L 5.77,0.0 z "
         style="fill-rule:evenodd;stroke:#000000;stroke-width:1pt;stroke-opacity:1;fill:#000000;fill-opacity:1"
         transform="scale(0.8)" />
    </marker>
    <marker
       inkscape:stockid="TriangleOutL"
       orient="auto"
       refY="0.0"
       refX="0.0"
       id="TriangleOutL"
       style="overflow:visible"
       inkscape:isstock="true">
      <path
         id="path6163"
         d="M 5.77,0.0 L -2.88,5.0 L -2.88,-5.0 L 5.77,0.0 z "
         style="fill-rule:evenodd;stroke:#000000;stroke-width:1.0pt"
         transform="scale(0.8)" />
    </marker>
    <marker
       inkscape:stockid="TriangleOutL"
       orient="auto"
       refY="0.0"
       refX="0.0"
       id="marker14848"
       style="overflow:visible"
       inkscape:isstock="true">
      <path
         id="path14850"
         d="M 5.77,0.0 L -2.88,5.0 L -2.88,-5.0 L 5.77,0.0 z "
         style="fill-rule:evenodd;stroke:#000000;stroke-width:1pt;stroke-opacity:1;fill:#000000;fill-opacity:1"
         transform="scale(0.8)" />
    </marker>
    <marker
       inkscape:isstock="true"
       style="overflow:visible"
       id="marker16070-2"
       refX="0.0"
       refY="0.0"
       orient="auto"
       inkscape:stockid="TriangleOutL">
      <path
         transform="scale(0.8)"
         style="fill-rule:evenodd;stroke:#000000;stroke-width:1pt;stroke-opacity:1;fill:#000000;fill-opacity:1"
         d="M 5.77,0.0 L -2.88,5.0 L -2.88,-5.0 L 5.77,0.0 z "
         id="path16072-6" />
    </marker>
    <marker
       inkscape:isstock="true"
       style="overflow:visible"
       id="TriangleOutL-6"
       refX="0.0"
       refY="0.0"
       orient="auto"
       inkscape:stockid="TriangleOutL">
      <path
         transform="scale(0.8)"
         style="fill-rule:evenodd;stroke:#000000;stroke-width:1.0pt"
         d="M 5.77,0.0 L -2.88,5.0 L -2.88,-5.0 L 5.77,0.0 z "
         id="path6163-8" />
    </marker>
    <marker
       inkscape:stockid="TriangleOutL"
       orient="auto"
       refY="0.0"
       refX="0.0"
       id="marker14848-1"
       style="overflow:visible"
       inkscape:isstock="true"
       inkscape:collect="always">
      <path
         id="path14850-5"
         d="M 5.77,0.0 L -2.88,5.0 L -2.88,-5.0 L 5.77,0.0 z "
         style="fill-rule:evenodd;stroke:#000000;stroke-width:1pt;stroke-opacity:1;fill:#000000;fill-opacity:1"
         transform="scale(0.8)" />
    </marker>
    <marker
       inkscape:isstock="true"
       style="overflow:visible"
       id="TriangleOutL-2"
       refX="0.0"
       refY="0.0"
       orient="auto"
       inkscape:stockid="TriangleOutL"
       inkscape:collect="always">
      <path
         transform="scale(0.8)"
         style="fill-rule:evenodd;stroke:#000000;stroke-width:1pt;stroke-opacity:1;fill:#000000;fill-opacity:1"
         d="M 5.77,0.0 L -2.88,5.0 L -2.88,-5.0 L 5.77,0.0 z "
         id="path6163-9" />
    </marker>
    <marker
       inkscape:isstock="true"
       style="overflow:visible"
       id="marker19849-4"
       refX="0.0"
       refY="0.0"
       orient="auto"
       inkscape:stockid="Arrow2Lstart">
      <path
         transform="scale(1.1) translate(1,0)"
         d="M 8.7185878,4.0337352 L -2.2072895,0.016013256 L 8.7185884,-4.0017078 C 6.9730900,-1.6296469 6.9831476,1.6157441 8.7185878,4.0337352 z "
         style="fill-rule:evenodd;stroke-width:0.625;stroke-linejoin:round;stroke:#000000;stroke-opacity:1;fill:#000000;fill-opacity:1"
         id="path19851-3" />
    </marker>
    <marker
       inkscape:isstock="true"
       style="overflow:visible"
       id="Arrow2Lstart-5"
       refX="0.0"
       refY="0.0"
       orient="auto"
       inkscape:stockid="Arrow2Lstart">
      <path
         transform="scale(1.1) translate(1,0)"
         d="M 8.7185878,4.0337352 L -2.2072895,0.016013256 L 8.7185884,-4.0017078 C 6.9730900,-1.6296469 6.9831476,1.6157441 8.7185878,4.0337352 z "
         style="fill-rule:evenodd;stroke-width:0.625;stroke-linejoin:round;stroke:#000000;stroke-opacity:1;fill:#000000;fill-opacity:1"
         id="path6039-9" />
    </marker>
    <marker
       inkscape:stockid="TriangleOutL"
       orient="auto"
       refY="0.0"
       refX="0.0"
       id="marker19699-8"
       style="overflow:visible"
       inkscape:isstock="true">
      <path
         id="path19701-1"
         d="M 5.77,0.0 L -2.88,5.0 L -2.88,-5.0 L 5.77,0.0 z "
         style="fill-rule:evenodd;stroke:#000000;stroke-width:1pt;stroke-opacity:1;fill:#000000;fill-opacity:1"
         transform="scale(0.8)" />
    </marker>
    <marker
       inkscape:isstock="true"
       style="overflow:visible"
       id="marker19635-9"
       refX="0.0"
       refY="0.0"
       orient="auto"
       inkscape:stockid="TriangleOutL">
      <path
         transform="scale(0.8)"
         style="fill-rule:evenodd;stroke:#000000;stroke-width:1pt;stroke-opacity:1;fill:#000000;fill-opacity:1"
         d="M 5.77,0.0 L -2.88,5.0 L -2.88,-5.0 L 5.77,0.0 z "
         id="path19637-2" />
    </marker>
    <marker
       inkscape:isstock="true"
       style="overflow:visible"
       id="marker16070-21"
       refX="0.0"
       refY="0.0"
       orient="auto"
       inkscape:stockid="TriangleOutL">
      <path
         transform="scale(0.8)"
         style="fill-rule:evenodd;stroke:#000000;stroke-width:1pt;stroke-opacity:1;fill:#000000;fill-opacity:1"
         d="M 5.77,0.0 L -2.88,5.0 L -2.88,-5.0 L 5.77,0.0 z "
         id="path16072-79" />
    </marker>
    <marker
       inkscape:isstock="true"
       style="overflow:visible"
       id="TriangleOutL-5"
       refX="0.0"
       refY="0.0"
       orient="auto"
       inkscape:stockid="TriangleOutL">
      <path
         transform="scale(0.8)"
         style="fill-rule:evenodd;stroke:#000000;stroke-width:1.0pt"
         d="M 5.77,0.0 L -2.88,5.0 L -2.88,-5.0 L 5.77,0.0 z "
         id="path6163-0" />
    </marker>
    <marker
       inkscape:isstock="true"
       style="overflow:visible"
       id="marker14848-9"
       refX="0.0"
       refY="0.0"
       orient="auto"
       inkscape:stockid="TriangleOutL">
      <path
         transform="scale(0.8)"
         style="fill-rule:evenodd;stroke:#000000;stroke-width:1pt;stroke-opacity:1;fill:#000000;fill-opacity:1"
         d="M 5.77,0.0 L -2.88,5.0 L -2.88,-5.0 L 5.77,0.0 z "
         id="path14850-33" />
    </marker>
    <marker
       inkscape:stockid="TriangleOutL"
       orient="auto"
       refY="0.0"
       refX="0.0"
       id="marker16070-2-6"
       style="overflow:visible"
       inkscape:isstock="true">
      <path
         id="path16072-6-1"
         d="M 5.77,0.0 L -2.88,5.0 L -2.88,-5.0 L 5.77,0.0 z "
         style="fill-rule:evenodd;stroke:#000000;stroke-width:1pt;stroke-opacity:1;fill:#000000;fill-opacity:1"
         transform="scale(0.8)" />
    </marker>
    <marker
       inkscape:stockid="TriangleOutL"
       orient="auto"
       refY="0.0"
       refX="0.0"
       id="TriangleOutL-6-2"
       style="overflow:visible"
       inkscape:isstock="true">
      <path
         id="path6163-8-59"
         d="M 5.77,0.0 L -2.88,5.0 L -2.88,-5.0 L 5.77,0.0 z "
         style="fill-rule:evenodd;stroke:#000000;stroke-width:1.0pt"
         transform="scale(0.8)" />
    </marker>
    <marker
       inkscape:stockid="TriangleInL"
       orient="auto"
       refY="0.0"
       refX="0.0"
       id="TriangleInL"
       style="overflow:visible"
       inkscape:isstock="true">
      <path
         id="path6154"
         d="M 5.77,0.0 L -2.88,5.0 L -2.88,-5.0 L 5.77,0.0 z "
         style="fill-rule:evenodd;stroke:#000000;stroke-width:1pt;stroke-opacity:1;fill:#000000;fill-opacity:1"
         transform="scale(-0.8)" />
    </marker>
    <marker
       inkscape:stockid="Arrow2Lstart"
       orient="auto"
       refY="0.0"
       refX="0.0"
       id="marker19849-2"
       style="overflow:visible"
       inkscape:isstock="true">
      <path
         id="path19851-8"
         style="fill-rule:evenodd;stroke-width:0.625;stroke-linejoin:round;stroke:#000000;stroke-opacity:1;fill:#000000;fill-opacity:1"
         d="M 8.7185878,4.0337352 L -2.2072895,0.016013256 L 8.7185884,-4.0017078 C 6.9730900,-1.6296469 6.9831476,1.6157441 8.7185878,4.0337352 z "
         transform="scale(1.1) translate(1,0)" />
    </marker>
    <marker
       inkscape:stockid="Arrow2Lstart"
       orient="auto"
       refY="0.0"
       refX="0.0"
       id="Arrow2Lstart-3"
       style="overflow:visible"
       inkscape:isstock="true">
      <path
         id="path6039-8"
         style="fill-rule:evenodd;stroke-width:0.625;stroke-linejoin:round;stroke:#000000;stroke-opacity:1;fill:#000000;fill-opacity:1"
         d="M 8.7185878,4.0337352 L -2.2072895,0.016013256 L 8.7185884,-4.0017078 C 6.9730900,-1.6296469 6.9831476,1.6157441 8.7185878,4.0337352 z "
         transform="scale(1.1) translate(1,0)" />
    </marker>
    <marker
       inkscape:isstock="true"
       style="overflow:visible"
       id="marker19699-6"
       refX="0.0"
       refY="0.0"
       orient="auto"
       inkscape:stockid="TriangleOutL">
      <path
         transform="scale(0.8)"
         style="fill-rule:evenodd;stroke:#000000;stroke-width:1pt;stroke-opacity:1;fill:#000000;fill-opacity:1"
         d="M 5.77,0.0 L -2.88,5.0 L -2.88,-5.0 L 5.77,0.0 z "
         id="path19701-6" />
    </marker>
    <marker
       inkscape:stockid="TriangleOutL"
       orient="auto"
       refY="0.0"
       refX="0.0"
       id="marker19635-6"
       style="overflow:visible"
       inkscape:isstock="true">
      <path
         id="path19637-8"
         d="M 5.77,0.0 L -2.88,5.0 L -2.88,-5.0 L 5.77,0.0 z "
         style="fill-rule:evenodd;stroke:#000000;stroke-width:1pt;stroke-opacity:1;fill:#000000;fill-opacity:1"
         transform="scale(0.8)" />
    </marker>
    <marker
       inkscape:stockid="TriangleOutL"
       orient="auto"
       refY="0.0"
       refX="0.0"
       id="marker16070-8"
       style="overflow:visible"
       inkscape:isstock="true">
      <path
         id="path16072-7"
         d="M 5.77,0.0 L -2.88,5.0 L -2.88,-5.0 L 5.77,0.0 z "
         style="fill-rule:evenodd;stroke:#000000;stroke-width:1pt;stroke-opacity:1;fill:#000000;fill-opacity:1"
         transform="scale(0.8)" />
    </marker>
    <marker
       inkscape:stockid="TriangleOutL"
       orient="auto"
       refY="0.0"
       refX="0.0"
       id="TriangleOutL-0"
       style="overflow:visible"
       inkscape:isstock="true">
      <path
         id="path6163-6"
         d="M 5.77,0.0 L -2.88,5.0 L -2.88,-5.0 L 5.77,0.0 z "
         style="fill-rule:evenodd;stroke:#000000;stroke-width:1.0pt"
         transform="scale(0.8)" />
    </marker>
    <marker
       inkscape:stockid="TriangleOutL"
       orient="auto"
       refY="0.0"
       refX="0.0"
       id="marker14848-13"
       style="overflow:visible"
       inkscape:isstock="true">
      <path
         id="path14850-3"
         d="M 5.77,0.0 L -2.88,5.0 L -2.88,-5.0 L 5.77,0.0 z "
         style="fill-rule:evenodd;stroke:#000000;stroke-width:1pt;stroke-opacity:1;fill:#000000;fill-opacity:1"
         transform="scale(0.8)" />
    </marker>
    <marker
       inkscape:isstock="true"
       style="overflow:visible"
       id="marker16070-2-9"
       refX="0.0"
       refY="0.0"
       orient="auto"
       inkscape:stockid="TriangleOutL">
      <path
         transform="scale(0.8)"
         style="fill-rule:evenodd;stroke:#000000;stroke-width:1pt;stroke-opacity:1;fill:#000000;fill-opacity:1"
         d="M 5.77,0.0 L -2.88,5.0 L -2.88,-5.0 L 5.77,0.0 z "
         id="path16072-6-9" />
    </marker>
    <marker
       inkscape:isstock="true"
       style="overflow:visible"
       id="TriangleOutL-6-4"
       refX="0.0"
       refY="0.0"
       orient="auto"
       inkscape:stockid="TriangleOutL">
      <path
         transform="scale(0.8)"
         style="fill-rule:evenodd;stroke:#000000;stroke-width:1.0pt"
         d="M 5.77,0.0 L -2.88,5.0 L -2.88,-5.0 L 5.77,0.0 z "
         id="path6163-8-5" />
    </marker>
  </defs>
  <sodipodi:namedview
     id="base"
     pagecolor="#ffffff"
     bordercolor="#666666"
     borderopacity="1.0"
     inkscape:pageopacity="0.0"
     inkscape:pageshadow="2"
     inkscape:zoom="1.979899"
     inkscape:cx="214.36266"
     inkscape:cy="138.82105"
     inkscape:document-units="px"
     inkscape:current-layer="layer1"
     showgrid="false"
     units="px"
     inkscape:window-width="1440"
     inkscape:window-height="817"
     inkscape:window-x="0"
     inkscape:window-y="1"
     inkscape:window-maximized="1" />
  <metadata
     id="metadata11275">
    <rdf:RDF>
      <cc:Work
         rdf:about="">
        <dc:format>image/svg+xml</dc:format>
        <dc:type
           rdf:resource="http://purl.org/dc/dcmitype/StillImage" />
        <dc:title />
      </cc:Work>
    </rdf:RDF>
  </metadata>
  <g
     inkscape:label="Layer 1"
     inkscape:groupmode="layer"
     id="layer1"
     transform="translate(0,-752.36216)">
    <rect
       style="fill:none;fill-opacity:1;stroke:#000000;stroke-width:1;stroke-miterlimit:4;stroke-dasharray:none;stroke-opacity:1"
       id="rect11278-4"
       width="187.07925"
       height="104.87141"
       x="156.3912"
       y="843.20129" />
    <text
       xml:space="preserve"
       style="font-style:normal;font-weight:normal;font-size:40px;line-height:125%;font-family:sans-serif;letter-spacing:0px;word-spacing:0px;fill:#000000;fill-opacity:1;stroke:none;stroke-width:1px;stroke-linecap:butt;stroke-linejoin:miter;stroke-opacity:1"
       x="240.78818"
       y="959.98212"
       id="text11280-6"
       sodipodi:linespacing="125%"><tspan
         sodipodi:role="line"
         id="tspan11282-8"
         x="240.78818"
         y="959.98212"
         style="font-size:12.5px">Keywhiz (server)</tspan></text>
    <text
       sodipodi:linespacing="125%"
       id="text16058-9"
       y="861.35474"
       x="406.68048"
       style="font-style:normal;font-weight:normal;font-size:40px;line-height:125%;font-family:sans-serif;letter-spacing:0px;word-spacing:0px;fill:#000000;fill-opacity:1;stroke:none;stroke-width:1px;stroke-linecap:butt;stroke-linejoin:miter;stroke-opacity:1"
       xml:space="preserve"><tspan
         style="font-size:12.5px"
         y="861.35474"
         x="406.68048"
         id="tspan16060-7"
         sodipodi:role="line">HSM</tspan></text>
    <path
       style="fill:none;fill-rule:evenodd;stroke:#000000;stroke-width:1px;stroke-linecap:butt;stroke-linejoin:miter;stroke-opacity:1"
       d="m 357.75211,875.77145 c 13.63708,1.01015 16.66753,-1.76783 26.76905,-11.86932"
       id="path16068-4"
       inkscape:connector-curvature="0"
       sodipodi:nodetypes="cc" />
    <text
       xml:space="preserve"
       style="font-style:normal;font-weight:normal;font-size:40px;line-height:125%;font-family:sans-serif;letter-spacing:0px;word-spacing:0px;fill:#000000;fill-opacity:1;stroke:none;stroke-width:1px;stroke-linecap:butt;stroke-linejoin:miter;stroke-opacity:1"
       x="223.84288"
       y="795.44226"
       id="text16548"
       sodipodi:linespacing="125%"><tspan
         sodipodi:role="line"
         id="tspan16550"
         x="223.84288"
         y="795.44226"
         style="font-size:12.5px">Database</tspan></text>
    <path
       sodipodi:nodetypes="cc"
       inkscape:connector-curvature="0"
       id="path16552"
       d="m 250.67595,802.03032 c -0.50506,13.13198 1.51524,20.45553 14.14214,28.53678"
       style="fill:none;fill-rule:evenodd;stroke:#000000;stroke-width:1px;stroke-linecap:butt;stroke-linejoin:miter;stroke-opacity:1" />
    <path
       inkscape:connector-curvature="0"
       id="path16589"
       d="m 396.92674,844.61492 c -3.45954,-0.038 -5.57834,2.90635 -5.54289,6.97686 -2.99648,0.67101 -1.60243,8.47728 -1.5293,10.561 0.0731,2.08373 5.11288,3.22106 7.50238,3.29737 2.38949,0.0762 6.40584,-1.81369 6.40326,-4.2531 -0.003,-2.43938 0.94123,-8.41308 -1.5766,-9.55722 -0.0713,-3.15956 -1.79732,-6.98704 -5.25685,-7.02491 z m -0.19078,2.38971 c 3.48839,0 3.10594,4.53985 3.10594,4.53985 l -6.21184,0 c 0,0 -0.38248,-4.53985 3.1059,-4.53985 z m 0.28694,8.74489 c 2.70232,0.14347 1.77077,3.19553 0.76428,3.29736 l 0.0479,1.86339 -2.24627,0 0,-1.91144 c -0.97344,-0.64521 -1.26838,-3.39265 1.43395,-3.24931 z"
       style="fill:#000000;fill-opacity:1;fill-rule:evenodd;stroke:none;stroke-width:1px;stroke-linecap:butt;stroke-linejoin:miter;stroke-opacity:1" />
    <rect
       style="fill:none;fill-opacity:1;stroke:#000000;stroke-width:2;stroke-miterlimit:4;stroke-dasharray:none;stroke-opacity:1"
       id="rect11278"
       width="187.07925"
       height="104.87141"
       x="156.71902"
       y="843.41754" />
    <rect
       y="994.17523"
       x="169.39449"
       height="9.118475"
       width="16.266373"
       id="rect13038"
       style="fill:none;fill-opacity:1;stroke:#000000;stroke-width:1;stroke-miterlimit:4;stroke-dasharray:none;stroke-opacity:1" />
    <rect
       style="fill:none;fill-opacity:1;stroke:#000000;stroke-width:1;stroke-miterlimit:4;stroke-dasharray:none;stroke-opacity:1"
       id="rect13580"
       width="16.266373"
       height="9.118475"
       x="190.60768"
       y="1001.7514" />
    <rect
       y="989.12451"
       x="197.67874"
       height="9.118475"
       width="16.266373"
       id="rect13582"
       style="fill:none;fill-opacity:1;stroke:#000000;stroke-width:1;stroke-miterlimit:4;stroke-dasharray:none;stroke-opacity:1" />
    <rect
       style="fill:none;fill-opacity:1;stroke:#000000;stroke-width:1;stroke-miterlimit:4;stroke-dasharray:none;stroke-opacity:1"
       id="rect13584"
       width="16.266373"
       height="9.118475"
       x="212.32596"
       y="1006.8022" />
    <rect
       y="992.15503"
       x="219.9021"
       height="9.118475"
       width="16.266373"
       id="rect13586"
       style="fill:none;fill-opacity:1;stroke:#000000;stroke-width:1;stroke-miterlimit:4;stroke-dasharray:none;stroke-opacity:1" />
    <rect
       style="fill:none;fill-opacity:1;stroke:#000000;stroke-width:1;stroke-miterlimit:4;stroke-dasharray:none;stroke-opacity:1"
       id="rect13588"
       width="16.266373"
       height="9.118475"
       x="174.95032"
       y="1013.8734" />
    <rect
       style="fill:none;fill-opacity:1;stroke:#000000;stroke-width:1;stroke-miterlimit:4;stroke-dasharray:none;stroke-opacity:1"
       id="rect13590"
       width="16.266373"
       height="9.118475"
       x="269.3996"
       y="993.1651" />
    <rect
       y="1000.7412"
       x="290.61279"
       height="9.118475"
       width="16.266373"
       id="rect13592"
       style="fill:none;fill-opacity:1;stroke:#000000;stroke-width:1;stroke-miterlimit:4;stroke-dasharray:none;stroke-opacity:1" />
    <rect
       style="fill:none;fill-opacity:1;stroke:#000000;stroke-width:1;stroke-miterlimit:4;stroke-dasharray:none;stroke-opacity:1"
       id="rect13594"
       width="16.266373"
       height="9.118475"
       x="297.68384"
       y="988.11438" />
    <rect
       y="1005.7921"
       x="312.33105"
       height="9.118475"
       width="16.266373"
       id="rect13596"
       style="fill:none;fill-opacity:1;stroke:#000000;stroke-width:1;stroke-miterlimit:4;stroke-dasharray:none;stroke-opacity:1" />
    <rect
       style="fill:none;fill-opacity:1;stroke:#000000;stroke-width:1;stroke-miterlimit:4;stroke-dasharray:none;stroke-opacity:1"
       id="rect13598"
       width="16.266373"
       height="9.118475"
       x="319.9072"
       y="991.1449" />
    <rect
       y="1012.8632"
       x="274.95541"
       height="9.118475"
       width="16.266373"
       id="rect13600"
       style="fill:none;fill-opacity:1;stroke:#000000;stroke-width:1;stroke-miterlimit:4;stroke-dasharray:none;stroke-opacity:1" />
    <text
       sodipodi:linespacing="125%"
       id="text13608"
       y="1035.4547"
       x="241.116"
       style="font-style:normal;font-weight:normal;font-size:40px;line-height:125%;font-family:sans-serif;letter-spacing:0px;word-spacing:0px;fill:#000000;fill-opacity:1;stroke:none;stroke-width:1px;stroke-linecap:butt;stroke-linejoin:miter;stroke-opacity:1"
       xml:space="preserve"><tspan
         style="font-size:12.5px"
         y="1035.4547"
         x="241.116"
         id="tspan13610"
         sodipodi:role="line">Keywhiz (clients)</tspan></text>
    <path
       style="fill:none;fill-rule:evenodd;stroke:#000000;stroke-width:1px;stroke-linecap:butt;stroke-linejoin:miter;stroke-opacity:1;marker-end:url(#TriangleOutL-2)"
       d="m 226.53282,952.39171 c 7.57616,11.61675 2.52538,20.203 -6.06091,29.79947"
       id="path13612"
       inkscape:connector-curvature="0"
       sodipodi:nodetypes="cc" />
    <path
       sodipodi:nodetypes="cc"
       inkscape:connector-curvature="0"
       id="path14846"
       d="m 226.53282,952.39171 c 7.57616,11.61675 24.74874,23.73853 39.90103,29.79947"
       style="fill:none;fill-rule:evenodd;stroke:#000000;stroke-width:1px;stroke-linecap:butt;stroke-linejoin:miter;stroke-opacity:1;marker-end:url(#marker14848-1)" />
    <g
       transform="matrix(0.07276915,0,0,0.07276915,165.39264,930.44902)"
       id="g15233">
      <path
         inkscape:connector-curvature="0"
         style="fill:#a8e6cf;fill-opacity:1;fill-rule:evenodd;stroke:#000000;stroke-width:1.76574767;stroke-linecap:butt;stroke-linejoin:miter;stroke-miterlimit:4;stroke-dasharray:none;stroke-opacity:1"
         d="m 121.15881,928.37909 0,33.21008 c 0,1.16584 -1.07516,2.1044 -2.41067,2.1044 l -34.639163,0 c -1.335516,0 -2.410679,-0.93856 -2.410679,-2.1044 l 0,-47.02337 c 0,-1.16584 1.075163,-2.1044 2.410679,-2.1044 l 0,0 21.132733,0"
         id="path15235" />
      <path
         style="fill:#a8e6cf;fill-opacity:1;fill-rule:evenodd;stroke:#000000;stroke-width:1.74026072;stroke-linecap:butt;stroke-linejoin:miter;stroke-miterlimit:4;stroke-dasharray:none;stroke-opacity:1"
         d="m 121.15881,928.37909 -13.50642,0 c -1.33552,0 -2.41068,-0.93856 -2.41068,-2.1044 l 0,-13.81329"
         id="path15237"
         inkscape:connector-curvature="0" />
      <path
         style="fill:none;fill-opacity:0;fill-rule:evenodd;stroke:#000000;stroke-width:1.76574767;stroke-linecap:butt;stroke-linejoin:miter;stroke-miterlimit:4;stroke-dasharray:none;stroke-opacity:1"
         d="m 104.61014,912.20066 16.79344,16.79723"
         id="path15239"
         inkscape:connector-curvature="0"
         sodipodi:nodetypes="cc" />
    </g>
    <g
       id="g15321"
       transform="matrix(0.07276915,0,0,0.07276915,192.92981,925.58766)">
      <path
         id="path15323"
         d="m 121.15881,928.37909 0,33.21008 c 0,1.16584 -1.07516,2.1044 -2.41067,2.1044 l -34.639163,0 c -1.335516,0 -2.410679,-0.93856 -2.410679,-2.1044 l 0,-47.02337 c 0,-1.16584 1.075163,-2.1044 2.410679,-2.1044 l 0,0 21.132733,0"
         style="fill:#a8e6cf;fill-opacity:1;fill-rule:evenodd;stroke:#000000;stroke-width:1.76574767;stroke-linecap:butt;stroke-linejoin:miter;stroke-miterlimit:4;stroke-dasharray:none;stroke-opacity:1"
         inkscape:connector-curvature="0" />
      <path
         inkscape:connector-curvature="0"
         id="path15325"
         d="m 121.15881,928.37909 -13.50642,0 c -1.33552,0 -2.41068,-0.93856 -2.41068,-2.1044 l 0,-13.81329"
         style="fill:#a8e6cf;fill-opacity:1;fill-rule:evenodd;stroke:#000000;stroke-width:1.74026072;stroke-linecap:butt;stroke-linejoin:miter;stroke-miterlimit:4;stroke-dasharray:none;stroke-opacity:1" />
      <path
         sodipodi:nodetypes="cc"
         inkscape:connector-curvature="0"
         id="path15327"
         d="m 104.61014,912.20066 16.79344,16.79723"
         style="fill:none;fill-opacity:0;fill-rule:evenodd;stroke:#000000;stroke-width:1.76574767;stroke-linecap:butt;stroke-linejoin:miter;stroke-miterlimit:4;stroke-dasharray:none;stroke-opacity:1" />
    </g>
    <g
       id="g15361"
       transform="matrix(0.07276915,0,0,0.07276915,207.61292,943.07593)">
      <path
         id="path15363"
         d="m 121.15881,928.37909 0,33.21008 c 0,1.16584 -1.07516,2.1044 -2.41067,2.1044 l -34.639163,0 c -1.335516,0 -2.410679,-0.93856 -2.410679,-2.1044 l 0,-47.02337 c 0,-1.16584 1.075163,-2.1044 2.410679,-2.1044 l 0,0 21.132733,0"
         style="fill:#a8e6cf;fill-opacity:1;fill-rule:evenodd;stroke:#000000;stroke-width:1.76574767;stroke-linecap:butt;stroke-linejoin:miter;stroke-miterlimit:4;stroke-dasharray:none;stroke-opacity:1"
         inkscape:connector-curvature="0" />
      <path
         inkscape:connector-curvature="0"
         id="path15365"
         d="m 121.15881,928.37909 -13.50642,0 c -1.33552,0 -2.41068,-0.93856 -2.41068,-2.1044 l 0,-13.81329"
         style="fill:#a8e6cf;fill-opacity:1;fill-rule:evenodd;stroke:#000000;stroke-width:1.74026072;stroke-linecap:butt;stroke-linejoin:miter;stroke-miterlimit:4;stroke-dasharray:none;stroke-opacity:1" />
      <path
         sodipodi:nodetypes="cc"
         inkscape:connector-curvature="0"
         id="path15367"
         d="m 104.61014,912.20066 16.79344,16.79723"
         style="fill:none;fill-opacity:0;fill-rule:evenodd;stroke:#000000;stroke-width:1.76574767;stroke-linecap:butt;stroke-linejoin:miter;stroke-miterlimit:4;stroke-dasharray:none;stroke-opacity:1" />
    </g>
    <g
       id="g15369"
       transform="matrix(0.07276915,0,0,0.07276915,215.32835,928.30245)">
      <path
         id="path15371"
         d="m 121.15881,928.37909 0,33.21008 c 0,1.16584 -1.07516,2.1044 -2.41067,2.1044 l -34.639163,0 c -1.335516,0 -2.410679,-0.93856 -2.410679,-2.1044 l 0,-47.02337 c 0,-1.16584 1.075163,-2.1044 2.410679,-2.1044 l 0,0 21.132733,0"
         style="fill:#a8e6cf;fill-opacity:1;fill-rule:evenodd;stroke:#000000;stroke-width:1.76574767;stroke-linecap:butt;stroke-linejoin:miter;stroke-miterlimit:4;stroke-dasharray:none;stroke-opacity:1"
         inkscape:connector-curvature="0" />
      <path
         inkscape:connector-curvature="0"
         id="path15373"
         d="m 121.15881,928.37909 -13.50642,0 c -1.33552,0 -2.41068,-0.93856 -2.41068,-2.1044 l 0,-13.81329"
         style="fill:#a8e6cf;fill-opacity:1;fill-rule:evenodd;stroke:#000000;stroke-width:1.74026072;stroke-linecap:butt;stroke-linejoin:miter;stroke-miterlimit:4;stroke-dasharray:none;stroke-opacity:1" />
      <path
         sodipodi:nodetypes="cc"
         inkscape:connector-curvature="0"
         id="path15375"
         d="m 104.61014,912.20066 16.79344,16.79723"
         style="fill:none;fill-opacity:0;fill-rule:evenodd;stroke:#000000;stroke-width:1.76574767;stroke-linecap:butt;stroke-linejoin:miter;stroke-miterlimit:4;stroke-dasharray:none;stroke-opacity:1" />
    </g>
    <g
       id="g15395"
       transform="matrix(0.07276915,0,0,0.07276915,315.39265,927.23474)">
      <path
         id="path15397"
         d="m 121.15881,928.37909 0,33.21008 c 0,1.16584 -1.07516,2.1044 -2.41067,2.1044 l -34.639163,0 c -1.335516,0 -2.410679,-0.93856 -2.410679,-2.1044 l 0,-47.02337 c 0,-1.16584 1.075163,-2.1044 2.410679,-2.1044 l 0,0 21.132733,0"
         style="fill:#a8e6cf;fill-opacity:1;fill-rule:evenodd;stroke:#000000;stroke-width:1.76574767;stroke-linecap:butt;stroke-linejoin:miter;stroke-miterlimit:4;stroke-dasharray:none;stroke-opacity:1"
         inkscape:connector-curvature="0" />
      <path
         inkscape:connector-curvature="0"
         id="path15399"
         d="m 121.15881,928.37909 -13.50642,0 c -1.33552,0 -2.41068,-0.93856 -2.41068,-2.1044 l 0,-13.81329"
         style="fill:#a8e6cf;fill-opacity:1;fill-rule:evenodd;stroke:#000000;stroke-width:1.74026072;stroke-linecap:butt;stroke-linejoin:miter;stroke-miterlimit:4;stroke-dasharray:none;stroke-opacity:1" />
      <path
         sodipodi:nodetypes="cc"
         inkscape:connector-curvature="0"
         id="path15401"
         d="m 104.61014,912.20066 16.79344,16.79723"
         style="fill:none;fill-opacity:0;fill-rule:evenodd;stroke:#000000;stroke-width:1.76574767;stroke-linecap:butt;stroke-linejoin:miter;stroke-miterlimit:4;stroke-dasharray:none;stroke-opacity:1" />
    </g>
    <g
       transform="matrix(0.07276915,0,0,0.07276915,286.3748,936.78831)"
       id="g15435">
      <path
         inkscape:connector-curvature="0"
         style="fill:#a8e6cf;fill-opacity:1;fill-rule:evenodd;stroke:#000000;stroke-width:1.76574767;stroke-linecap:butt;stroke-linejoin:miter;stroke-miterlimit:4;stroke-dasharray:none;stroke-opacity:1"
         d="m 121.15881,928.37909 0,33.21008 c 0,1.16584 -1.07516,2.1044 -2.41067,2.1044 l -34.639163,0 c -1.335516,0 -2.410679,-0.93856 -2.410679,-2.1044 l 0,-47.02337 c 0,-1.16584 1.075163,-2.1044 2.410679,-2.1044 l 0,0 21.132733,0"
         id="path15437" />
      <path
         style="fill:#a8e6cf;fill-opacity:1;fill-rule:evenodd;stroke:#000000;stroke-width:1.74026072;stroke-linecap:butt;stroke-linejoin:miter;stroke-miterlimit:4;stroke-dasharray:none;stroke-opacity:1"
         d="m 121.15881,928.37909 -13.50642,0 c -1.33552,0 -2.41068,-0.93856 -2.41068,-2.1044 l 0,-13.81329"
         id="path15439"
         inkscape:connector-curvature="0" />
      <path
         style="fill:none;fill-opacity:0;fill-rule:evenodd;stroke:#000000;stroke-width:1.76574767;stroke-linecap:butt;stroke-linejoin:miter;stroke-miterlimit:4;stroke-dasharray:none;stroke-opacity:1"
         d="m 104.61014,912.20066 16.79344,16.79723"
         id="path15441"
         inkscape:connector-curvature="0"
         sodipodi:nodetypes="cc" />
    </g>
    <g
       transform="matrix(0.07276915,0,0,0.07276915,307.53551,942.41331)"
       id="g15475">
      <path
         inkscape:connector-curvature="0"
         style="fill:#a8e6cf;fill-opacity:1;fill-rule:evenodd;stroke:#000000;stroke-width:1.76574767;stroke-linecap:butt;stroke-linejoin:miter;stroke-miterlimit:4;stroke-dasharray:none;stroke-opacity:1"
         d="m 121.15881,928.37909 0,33.21008 c 0,1.16584 -1.07516,2.1044 -2.41067,2.1044 l -34.639163,0 c -1.335516,0 -2.410679,-0.93856 -2.410679,-2.1044 l 0,-47.02337 c 0,-1.16584 1.075163,-2.1044 2.410679,-2.1044 l 0,0 21.132733,0"
         id="path15477" />
      <path
         style="fill:#a8e6cf;fill-opacity:1;fill-rule:evenodd;stroke:#000000;stroke-width:1.74026072;stroke-linecap:butt;stroke-linejoin:miter;stroke-miterlimit:4;stroke-dasharray:none;stroke-opacity:1"
         d="m 121.15881,928.37909 -13.50642,0 c -1.33552,0 -2.41068,-0.93856 -2.41068,-2.1044 l 0,-13.81329"
         id="path15479"
         inkscape:connector-curvature="0" />
      <path
         style="fill:none;fill-opacity:0;fill-rule:evenodd;stroke:#000000;stroke-width:1.76574767;stroke-linecap:butt;stroke-linejoin:miter;stroke-miterlimit:4;stroke-dasharray:none;stroke-opacity:1"
         d="m 104.61014,912.20066 16.79344,16.79723"
         id="path15481"
         inkscape:connector-curvature="0"
         sodipodi:nodetypes="cc" />
    </g>
  </g>
</svg>
